<svg width="2577" height="1008" viewBox="0 0 2577 1008" fill="none" xmlns="http://www.w3.org/2000/svg">
<path d="M457.213 934.36V929.089C457.213 920.391 450.166 913.344 441.473 913.344C432.775 913.344 425.728 920.391 425.728 929.089H268.288C268.288 920.391 261.241 913.344 252.543 913.344C243.85 913.344 236.797 920.391 236.797 929.089V934.756C236.797 949.24 250.099 960.573 267.104 960.573H426.984C434.474 961.136 441.88 958.682 447.557 953.761C453.229 948.839 456.708 941.854 457.208 934.359L457.213 934.36Z" fill="white"/>
<mask id="mask0_1044_18" style="mask-type:luminance" maskUnits="userSpaceOnUse" x="275" y="976" width="144" height="32">
<path d="M275 976H419V1007.81H275V976Z" fill="white"/>
</mask>
<g mask="url(#mask0_1044_18)">
<path d="M291.893 976.32C283.201 976.32 276.153 983.372 276.153 992.066C276.153 1000.76 283.2 1007.81 291.893 1007.81H402.101C410.799 1007.81 417.847 1000.76 417.847 992.066C417.847 983.372 410.8 976.32 402.101 976.32H291.893Z" fill="white"/>
</g>
<mask id="mask1_1044_18" style="mask-type:luminance" maskUnits="userSpaceOnUse" x="171" y="0" width="523" height="412">
<path d="M171 0.186523H693.667V412H171V0.186523Z" fill="white"/>
</mask>
<g mask="url(#mask1_1044_18)">
<path d="M177.2 52.5467L207.585 73.8801C208.538 74.5519 209.57 75.1092 210.653 75.5311L316.456 119.38L366.284 159.526L378.487 194.244L391.398 232.818C392.669 236.844 395.508 240.188 399.268 242.104L512.309 294.692L514.044 295.322L574.262 315.077L575.757 315.551L644.012 330.822C651.413 345.54 672.428 383.092 686.679 411.275C690.387 386.712 692.621 361.947 693.366 337.119C690.975 250.583 656.721 167.972 597.173 105.132C577.918 85.1164 556.323 67.487 532.855 52.627C485.183 22.1897 430.538 4.41369 374.082 0.987024C365.186 0.20057 356.369 0.200565 347.473 0.200565C327.555 0.106816 307.655 1.55469 287.962 4.52869C252.118 9.59122 217.462 20.998 185.623 38.222C180.665 40.821 175.785 43.5762 171.139 46.0918V46.097C172.619 48.6959 174.697 50.9095 177.202 52.5501L177.2 52.5467ZM347.467 31.6867C355.336 31.6867 363.92 31.6867 372.264 32.395C423.321 35.4732 472.759 51.4831 515.931 78.9164C554.597 103.338 587.436 135.947 612.139 174.438C636.836 212.927 652.795 256.37 658.884 301.698H658.02L583.156 284.927L524.51 265.719L419.026 216.438L408.162 184.006L394.307 144.646V144.651C393.349 141.87 391.63 139.417 389.349 137.562L334.245 93.245C333.073 92.3023 331.776 91.5368 330.385 90.9639L233.64 50.9745C270.113 37.7557 308.676 31.2198 347.468 31.6878L347.467 31.6867Z" fill="white"/>
</g>
<path d="M466.107 897.6C477.232 897.35 487.815 892.756 495.585 884.792C503.356 876.829 507.695 866.136 507.674 855.011C507.674 834.151 507.674 781.407 510.825 760.547C518.695 708.354 547.746 663.172 576.95 620.667C606.153 578.156 636.857 534.074 659.21 486.84C660.705 483.611 668.497 462.439 670.861 455.351L667.32 447.481C648.898 407.257 632.918 372.539 621.976 353.96C619.778 350.205 616.132 347.528 611.898 346.559L574.819 338.684L505.464 315.069L371.638 256.345L336.607 184.001L328.737 162.747C327.742 159.986 325.998 157.559 323.701 155.741L300.086 136.377H300.081C298.904 135.45 297.607 134.68 296.227 134.091L199.32 93.9458L163.659 75.6858L148.94 59.9404C144.294 63.1696 136.581 69.4664 136.581 69.4664C99.4035 98.0398 68.3728 133.821 45.3514 174.669C22.3301 215.524 7.78879 260.596 2.59679 307.2C-2.95015 356.897 2.86241 407.205 19.6021 454.32C39.9928 510.293 74.3154 559.096 108.003 608.293C140.831 656.153 174.758 705.59 182.706 760.613C185.696 781.16 185.696 834.296 185.857 855.077C185.878 866.186 190.232 876.842 197.998 884.785C205.763 892.728 216.321 897.322 227.425 897.587L466.107 897.6ZM430.607 435.826C430.034 435.561 429.508 435.217 429.034 434.806L362.752 387.571L362.747 866.118H331.263V385.211L271.591 433.154L269.857 434.414V434.409C262.508 438.612 254.159 440.763 245.69 440.628C239.055 440.711 232.482 439.367 226.403 436.695L167.991 413.081L167.997 413.075C163.903 411.695 160.559 408.685 158.747 404.763C156.934 400.841 156.814 396.346 158.419 392.331C160.017 388.315 163.2 385.138 167.21 383.539C171.226 381.94 175.721 382.06 179.643 383.872L238.523 407.487H239.392C243.715 409.065 248.455 409.065 252.778 407.487L320.007 353.014L321.741 351.753H321.736C335.335 344.071 351.876 343.691 365.819 350.732C366.371 351.024 366.897 351.368 367.392 351.753L446.11 407.644V407.649C450.277 409.191 454.855 409.191 459.022 407.649L512.866 379.622C520.543 375.904 529.783 378.977 533.705 386.549C537.632 394.117 534.814 403.44 527.35 407.565L474.058 435.273V435.279C460.49 442.393 444.345 442.596 430.605 435.826L430.607 435.826Z" fill="#FFDE00"/>
<rect x="844" y="374" width="1733" height="274" rx="8" fill="#262626"/>
<path d="M1003.18 544.4C1000.42 564.333 989.61 574.3 970.75 574.3C960.477 574.3 952.58 571.387 947.06 565.56C941.693 559.733 939.01 551.837 939.01 541.87V482.53H922.45V469.65H939.01V436.76H955.11V469.65H995.13V482.53H955.11V539.8C955.11 545.933 956.413 550.917 959.02 554.75C961.78 558.43 966.227 560.27 972.36 560.27C976.347 560.27 980.027 559.043 983.4 556.59C986.927 554.137 989.457 548.77 990.99 540.49L1003.18 544.4ZM1131.08 572H1079.1V558.89H1097.04V511.28C1097.04 500.24 1094.74 492.497 1090.14 488.05C1085.69 483.45 1079.94 481.15 1072.89 481.15C1064 481.15 1056.71 484.217 1051.04 490.35C1045.52 496.33 1042.61 503.077 1042.3 510.59V558.89H1060.01V572H1008.26V558.89H1025.97V426.87H1008.26V413.76H1042.3V488.05C1049.81 474.403 1061.77 467.58 1078.18 467.58C1088.15 467.58 1096.5 470.647 1103.25 476.78C1110 482.913 1113.37 492.803 1113.37 506.45V558.89H1131.08V572ZM1233.1 542.56C1231.72 551.3 1227.35 558.813 1219.99 565.1C1212.63 571.233 1202.67 574.3 1190.09 574.3C1175.68 574.3 1164.03 569.777 1155.13 560.73C1146.24 551.683 1141.79 538.88 1141.79 522.32C1141.79 506.373 1146.01 493.263 1154.44 482.99C1162.88 472.717 1174.3 467.58 1188.71 467.58C1202.82 467.58 1213.55 472.027 1220.91 480.92C1228.27 489.813 1232.03 500.317 1232.18 512.43C1232.18 516.417 1231.72 520.48 1230.8 524.62H1158.81C1159.73 548.54 1170.54 560.5 1191.24 560.5C1199.37 560.5 1205.73 558.583 1210.33 554.75C1214.93 550.917 1218 545.857 1219.53 539.57L1233.1 542.56ZM1215.16 512.66C1215.93 504.993 1214.09 497.787 1209.64 491.04C1205.35 484.293 1198.22 480.92 1188.25 480.92C1178.75 480.92 1171.77 484.063 1167.32 490.35C1162.88 496.637 1160.12 504.073 1159.04 512.66H1215.16ZM1253.05 589.02H1352.41V600.75H1253.05V589.02ZM1489.53 572H1455.03V552.68C1451.81 559.12 1447.06 564.333 1440.77 568.32C1434.64 572.307 1427.51 574.3 1419.38 574.3C1409.41 574.3 1400.98 571.233 1394.08 565.1C1387.33 558.813 1383.96 548.847 1383.96 535.2V482.76H1366.02V469.65H1400.06V530.6C1400.06 541.64 1402.36 549.383 1406.96 553.83C1411.56 558.277 1417.46 560.5 1424.67 560.5C1433.41 560.5 1440.54 557.203 1446.06 550.61C1451.73 544.017 1454.72 537.04 1455.03 529.68V482.76H1433.64V469.65H1471.13V558.89H1489.53V572ZM1584.65 542.33C1584.65 552.297 1580.43 560.117 1572 565.79C1563.72 571.463 1553.44 574.3 1541.18 574.3C1533.97 574.3 1526.76 573.38 1519.56 571.54C1512.5 569.547 1506.75 567.093 1502.31 564.18L1505.53 540.95L1518.41 542.33L1517.72 555.9C1524.77 559.273 1532.36 560.96 1540.49 560.96C1547.69 560.96 1554.06 559.58 1559.58 556.82C1565.25 553.907 1568.09 549.537 1568.09 543.71C1568.09 538.037 1565.94 534.05 1561.65 531.75C1557.35 529.45 1551.99 527.763 1545.55 526.69C1539.26 525.617 1532.9 524.313 1526.46 522.78C1520.02 521.247 1514.65 518.64 1510.36 514.96C1506.06 511.127 1503.92 505.223 1503.92 497.25C1503.92 486.363 1507.9 478.697 1515.88 474.25C1523.85 469.803 1532.51 467.58 1541.87 467.58C1548.92 467.58 1555.51 468.5 1561.65 470.34C1567.93 472.18 1573.22 474.403 1577.52 477.01L1580.05 500.93L1566.71 502.54L1564.18 485.98C1557.74 482.607 1550.76 480.92 1543.25 480.92C1536.81 480.92 1531.52 482.147 1527.38 484.6C1523.24 487.053 1521.17 490.887 1521.17 496.1C1521.17 501.467 1523.31 505.3 1527.61 507.6C1531.9 509.747 1537.19 511.357 1543.48 512.43C1549.76 513.35 1556.05 514.577 1562.34 516.11C1568.62 517.643 1573.91 520.403 1578.21 524.39C1582.5 528.223 1584.65 534.203 1584.65 542.33ZM1693.78 542.56C1692.4 551.3 1688.03 558.813 1680.67 565.1C1673.31 571.233 1663.34 574.3 1650.77 574.3C1636.35 574.3 1624.7 569.777 1615.81 560.73C1606.91 551.683 1602.47 538.88 1602.47 522.32C1602.47 506.373 1606.68 493.263 1615.12 482.99C1623.55 472.717 1634.97 467.58 1649.39 467.58C1663.49 467.58 1674.23 472.027 1681.59 480.92C1688.95 489.813 1692.7 500.317 1692.86 512.43C1692.86 516.417 1692.4 520.48 1691.48 524.62H1619.49C1620.41 548.54 1631.22 560.5 1651.92 560.5C1660.04 560.5 1666.41 558.583 1671.01 554.75C1675.61 550.917 1678.67 545.857 1680.21 539.57L1693.78 542.56ZM1675.84 512.66C1676.6 504.993 1674.76 497.787 1670.32 491.04C1666.02 484.293 1658.89 480.92 1648.93 480.92C1639.42 480.92 1632.44 484.063 1628 490.35C1623.55 496.637 1620.79 504.073 1619.72 512.66H1675.84ZM1758.34 572H1706.36V558.89H1724.3V426.87H1706.13V413.76H1740.4V558.89H1758.34V572ZM1862.91 542.56C1861.53 551.3 1857.16 558.813 1849.8 565.1C1842.44 571.233 1832.47 574.3 1819.9 574.3C1805.48 574.3 1793.83 569.777 1784.94 560.73C1776.04 551.683 1771.6 538.88 1771.6 522.32C1771.6 506.373 1775.81 493.263 1784.25 482.99C1792.68 472.717 1804.1 467.58 1818.52 467.58C1832.62 467.58 1843.36 472.027 1850.72 480.92C1858.08 489.813 1861.83 500.317 1861.99 512.43C1861.99 516.417 1861.53 520.48 1860.61 524.62H1788.62C1789.54 548.54 1800.35 560.5 1821.05 560.5C1829.17 560.5 1835.54 558.583 1840.14 554.75C1844.74 550.917 1847.8 545.857 1849.34 539.57L1862.91 542.56ZM1844.97 512.66C1845.73 504.993 1843.89 497.787 1839.45 491.04C1835.15 484.293 1828.02 480.92 1818.06 480.92C1808.55 480.92 1801.57 484.063 1797.13 490.35C1792.68 496.637 1789.92 504.073 1788.85 512.66H1844.97ZM1962.66 542.33C1962.66 552.297 1958.45 560.117 1950.01 565.79C1941.73 571.463 1931.46 574.3 1919.19 574.3C1911.99 574.3 1904.78 573.38 1897.57 571.54C1890.52 569.547 1884.77 567.093 1880.32 564.18L1883.54 540.95L1896.42 542.33L1895.73 555.9C1902.79 559.273 1910.38 560.96 1918.5 560.96C1925.71 560.96 1932.07 559.58 1937.59 556.82C1943.27 553.907 1946.1 549.537 1946.1 543.71C1946.1 538.037 1943.96 534.05 1939.66 531.75C1935.37 529.45 1930 527.763 1923.56 526.69C1917.28 525.617 1910.91 524.313 1904.47 522.78C1898.03 521.247 1892.67 518.64 1888.37 514.96C1884.08 511.127 1881.93 505.223 1881.93 497.25C1881.93 486.363 1885.92 478.697 1893.89 474.25C1901.87 469.803 1910.53 467.58 1919.88 467.58C1926.94 467.58 1933.53 468.5 1939.66 470.34C1945.95 472.18 1951.24 474.403 1955.53 477.01L1958.06 500.93L1944.72 502.54L1942.19 485.98C1935.75 482.607 1928.78 480.92 1921.26 480.92C1914.82 480.92 1909.53 482.147 1905.39 484.6C1901.25 487.053 1899.18 490.887 1899.18 496.1C1899.18 501.467 1901.33 505.3 1905.62 507.6C1909.92 509.747 1915.21 511.357 1921.49 512.43C1927.78 513.35 1934.07 514.577 1940.35 516.11C1946.64 517.643 1951.93 520.403 1956.22 524.39C1960.52 528.223 1962.66 534.203 1962.66 542.33ZM2063.51 542.33C2063.51 552.297 2059.3 560.117 2050.86 565.79C2042.58 571.463 2032.31 574.3 2020.04 574.3C2012.84 574.3 2005.63 573.38 1998.42 571.54C1991.37 569.547 1985.62 567.093 1981.17 564.18L1984.39 540.95L1997.27 542.33L1996.58 555.9C2003.64 559.273 2011.23 560.96 2019.35 560.96C2026.56 560.96 2032.92 559.58 2038.44 556.82C2044.12 553.907 2046.95 549.537 2046.95 543.71C2046.95 538.037 2044.81 534.05 2040.51 531.75C2036.22 529.45 2030.85 527.763 2024.41 526.69C2018.13 525.617 2011.76 524.313 2005.32 522.78C1998.88 521.247 1993.52 518.64 1989.22 514.96C1984.93 511.127 1982.78 505.223 1982.78 497.25C1982.78 486.363 1986.77 478.697 1994.74 474.25C2002.72 469.803 2011.38 467.58 2020.73 467.58C2027.79 467.58 2034.38 468.5 2040.51 470.34C2046.8 472.18 2052.09 474.403 2056.38 477.01L2058.91 500.93L2045.57 502.54L2043.04 485.98C2036.6 482.607 2029.63 480.92 2022.11 480.92C2015.67 480.92 2010.38 482.147 2006.24 484.6C2002.1 487.053 2000.03 490.887 2000.03 496.1C2000.03 501.467 2002.18 505.3 2006.47 507.6C2010.77 509.747 2016.06 511.357 2022.34 512.43C2028.63 513.35 2034.92 514.577 2041.2 516.11C2047.49 517.643 2052.78 520.403 2057.07 524.39C2061.37 528.223 2063.51 534.203 2063.51 542.33ZM2084.55 589.02H2183.91V600.75H2084.55V589.02ZM2214.09 477.47C2219.45 473.943 2225.13 471.413 2231.11 469.88C2237.09 468.347 2243.45 467.58 2250.2 467.58C2274.58 467.58 2286.77 479.003 2286.77 501.85V550.61C2286.77 557.97 2289.68 561.65 2295.51 561.65C2298.11 561.65 2300.41 561.19 2302.41 560.27L2302.64 570.85C2298.5 573.15 2294.05 574.3 2289.3 574.3C2277.18 574.3 2270.97 567.4 2270.67 553.6V553.14C2267.45 558.66 2262.85 563.567 2256.87 567.86C2251.04 572.153 2243.99 574.3 2235.71 574.3C2228.96 574.3 2222.06 572.23 2215.01 568.09C2208.11 563.95 2204.66 556.437 2204.66 545.55C2204.66 532.67 2209.72 524.237 2219.84 520.25C2230.11 516.11 2241 514.04 2252.5 514.04C2255.56 514.04 2258.63 514.117 2261.7 514.27C2264.92 514.423 2267.91 514.653 2270.67 514.96V505.76C2270.67 498.4 2269.06 492.42 2265.84 487.82C2262.77 483.22 2256.64 480.92 2247.44 480.92C2239.92 480.92 2233.33 482.3 2227.66 485.06L2223.75 502.77L2210.41 501.16L2214.09 477.47ZM2270.67 533.59V525.77C2267.75 525.617 2264.69 525.387 2261.47 525.08C2258.25 524.773 2254.95 524.62 2251.58 524.62C2243.91 524.62 2236.93 525.847 2230.65 528.3C2224.51 530.6 2221.45 535.737 2221.45 543.71C2221.45 550.303 2223.52 554.827 2227.66 557.28C2231.8 559.733 2236.09 560.96 2240.54 560.96C2247.59 560.96 2254.18 558.507 2260.32 553.6C2266.6 548.693 2270.05 542.023 2270.67 533.59ZM2424.4 517.95C2424.4 526.997 2422.79 535.89 2419.57 544.63C2416.5 553.217 2411.52 560.347 2404.62 566.02C2397.87 571.54 2388.9 574.3 2377.71 574.3C2362.22 574.3 2350.95 568.55 2343.9 557.05V607.88H2367.59V620.99H2309.63V607.88H2327.8V482.76H2309.4V469.65H2343.9V491.04C2346.96 484.907 2351.41 479.463 2357.24 474.71C2363.06 469.957 2370.73 467.58 2380.24 467.58C2393.42 467.58 2404.08 472.027 2412.21 480.92C2420.33 489.813 2424.4 502.157 2424.4 517.95ZM2407.38 519.33C2407.38 507.063 2404.39 497.71 2398.41 491.27C2392.43 484.677 2384.99 481.38 2376.1 481.38C2366.9 481.38 2359.31 485.06 2353.33 492.42C2347.35 499.627 2344.2 507.14 2343.9 514.96V530.14C2343.9 538.727 2346.89 545.933 2352.87 551.76C2358.85 557.587 2366.05 560.5 2374.49 560.5C2385.99 560.5 2394.34 556.36 2399.56 548.08C2404.77 539.8 2407.38 530.217 2407.38 519.33ZM2457.24 443.2V422.27H2474.72V443.2H2457.24ZM2492.89 572H2440.91V558.89H2458.85V482.76H2440.45V469.65H2474.95V558.89H2492.89V572Z" fill="#F4F4F4"/>
</svg>
